<?xml version="1.0" encoding="UTF-8" standalone="no"?>
<!-- Created with Inkscape (http://www.inkscape.org/) -->

<svg
   width="16"
   height="15.999999"
   viewBox="0 0 4.2333332 4.233333"
   version="1.1"
   id="svg1"
   xmlns="http://www.w3.org/2000/svg"
   xmlns:svg="http://www.w3.org/2000/svg">
  <defs
     id="defs1" />
  <g
     id="layer1">
    <rect
       style="fill:#000000;fill-opacity:0;stroke:#8eef97;stroke-width:0.249019;stroke-opacity:1"
       id="rect1"
       width="3.9843142"
       height="3.9843142"
       x="0.1245096"
       y="0.12450964"
       ry="1.0396608" />
    <path
       d="m 2.9871562,2.5608255 q 0,0.1720826 -0.065112,0.3038575 Q 2.8569316,2.9964579 2.7468608,3.081724 2.6166362,3.1840433 2.4600566,3.2274515 2.3050273,3.2708597 2.0647319,3.2708597 H 1.2461772 V 0.96247352 h 0.6836792 q 0.2526977,0 0.3782715,0.0186035 0.1255737,0.0186035 0.2402954,0.0775147 0.127124,0.066663 0.1844848,0.1720825 0.057361,0.1038696 0.057361,0.2495972 0,0.164331 -0.083716,0.280603 -0.083716,0.1147217 -0.2232421,0.1844848 v 0.012402 q 0.2340942,0.048059 0.3689697,0.206189 0.1348755,0.1565795 0.1348755,0.3968753 z M 2.4709086,1.520579 q 0,-0.083716 -0.027905,-0.1410767 Q 2.4150981,1.3221415 2.3530864,1.2864847 2.2802226,1.2446268 2.176353,1.2353251 2.0724833,1.224473 1.9190043,1.224473 H 1.5531352 v 0.666626 h 0.396875 q 0.1441772,0 0.2294433,-0.013953 0.085266,-0.015503 0.1581299,-0.062012 0.072864,-0.046509 0.1023194,-0.1193725 0.031006,-0.074414 0.031006,-0.1751825 z m 0.1968872,1.0526489 q 0,-0.1395264 -0.041858,-0.2216919 Q 2.58408,2.2693705 2.4740092,2.2120096 2.3995951,2.1732523 2.2926249,2.1624003 2.187205,2.1499979 2.0352763,2.1499979 H 1.5531352 v 0.8588623 h 0.4061767 q 0.2015381,0 0.3302124,-0.020154 0.1286744,-0.021704 0.2108399,-0.077515 0.086816,-0.060462 0.127124,-0.1379761 0.040308,-0.077515 0.040308,-0.1999872 z"
       id="text1"
       style="font-size:3.175px;fill:#8eef97;stroke:#8eef97;stroke-width:0.0529167"
       aria-label="B" />
  </g>
</svg>
