<?xml version="1.0" encoding="UTF-8" standalone="no"?>
<!-- Created with Inkscape (http://www.inkscape.org/) -->

<svg
   width="100"
   height="100"
   viewBox="0 0 26.458333 26.458333"
   version="1.1"
   id="svg1"
   xmlns="http://www.w3.org/2000/svg"
   xmlns:svg="http://www.w3.org/2000/svg">
  <defs
     id="defs1" />
  <g
     id="layer1">
    <rect
       style="fill:#408400;fill-opacity:1;stroke:#00ff00;stroke-width:0.141564;stroke-opacity:1"
       id="rect1"
       width="2.7528634"
       height="17.761019"
       x="11.852735"
       y="8.6705713"
       ry="0" />
    <rect
       style="fill:#35391b;fill-opacity:1;stroke:#00ff00;stroke-width:0.164"
       id="rect2"
       width="19.289146"
       height="10.261121"
       x="3.5845935"
       y="8.0986061" />
    <path
       d="m 9.6433067,14.161402 q 0,0.422762 -0.293342,0.639563 -0.293341,0.216801 -0.788988,0.216801 -0.283226,0 -0.490589,-0.04879 -0.202304,-0.04879 -0.35909,-0.135509 v -0.433602 q 0.161843,0.08672 0.389436,0.162601 0.23265,0.07047 0.470358,0.07047 0.338861,0 0.490589,-0.113829 0.151729,-0.11924 0.151729,-0.314361 0,-0.1084 -0.05564,-0.195121 -0.05563,-0.08672 -0.202305,-0.17344 -0.141613,-0.08672 -0.409667,-0.195121 -0.262996,-0.1084 -0.450128,-0.216801 -0.187131,-0.1084 -0.288284,-0.260161 -0.101152,-0.15176 -0.101152,-0.390241 0,-0.368562 0.278169,-0.569103 0.283226,-0.20054 0.738412,-0.20054 0.247823,0 0.460243,0.0542 0.217478,0.04879 0.404609,0.14092 l -0.151728,0.379402 q -0.171959,-0.07588 -0.359091,-0.130081 -0.187132,-0.0542 -0.384379,-0.0542 -0.273111,0 -0.419782,0.09756 -0.141613,0.09213 -0.141613,0.254741 0,0.11924 0.06576,0.20596 0.06576,0.08131 0.217477,0.162601 0.156778,0.07588 0.414725,0.184281 0.257938,0.102989 0.440013,0.211381 0.182074,0.1084 0.278168,0.265581 0.09609,0.15176 0.09609,0.384821 z m 1.5628043,0.466122 q 0.101152,0 0.207362,-0.01622 0.106218,-0.02168 0.171959,-0.04336 v 0.363142 q -0.07081,0.03795 -0.202305,0.05963 -0.131498,0.02709 -0.252881,0.02709 -0.212419,0 -0.394494,-0.07588 -0.177016,-0.08131 -0.288284,-0.276421 -0.111267,-0.195121 -0.111267,-0.547422 V 12.427038 H 9.9518217 v -0.227641 l 0.3894363,-0.189701 0.177017,-0.617882 h 0.262996 v 0.666663 h 0.783931 v 0.368561 h -0.783931 v 1.680207 q 0,0.265581 0.116317,0.395661 0.121383,0.124652 0.308515,0.124652 z m 1.947182,-2.61787 q 0.495647,0 0.733355,0.233061 0.237708,0.233061 0.237708,0.742543 v 1.978307 h -0.323688 l -0.08597,-0.411921 h -0.02023 q -0.177016,0.238481 -0.374263,0.352301 -0.19219,0.113829 -0.536108,0.113829 -0.369206,0 -0.611971,-0.205961 -0.242766,-0.211381 -0.242766,-0.655822 0,-0.433602 0.31863,-0.666663 0.31863,-0.238481 0.981177,-0.260161 l 0.460244,-0.01622 v -0.173441 q 0,-0.363141 -0.146663,-0.504062 -0.146679,-0.140921 -0.414725,-0.140921 -0.21242,0 -0.404609,0.07045 -0.19219,0.06504 -0.359091,0.151761 l -0.136564,-0.357722 q 0.177017,-0.102989 0.419782,-0.17344 0.242766,-0.07588 0.505762,-0.07588 z m 0.131498,1.550126 q -0.505761,0.02168 -0.703009,0.17344 -0.192189,0.151761 -0.192189,0.428182 0,0.243901 0.136564,0.357722 0.141613,0.113829 0.35909,0.113829 0.343918,0 0.571511,-0.200541 0.227593,-0.205961 0.227593,-0.628723 v -0.260161 z m 2.943538,-1.555546 q 0.07587,0 0.161844,0.01075 0.09104,0.0055 0.156778,0.02168 l -0.05564,0.439022 q -0.06574,-0.01622 -0.146663,-0.02711 -0.07587,-0.01075 -0.146679,-0.01075 -0.207362,0 -0.389436,0.124652 -0.182074,0.11924 -0.293342,0.341461 -0.106218,0.216801 -0.106218,0.509482 v 1.550126 h -0.44507 v -2.905131 h 0.364148 l 0.05058,0.531162 h 0.02023 q 0.131498,-0.238481 0.33886,-0.411922 0.207363,-0.17344 0.490589,-0.17344 z m 1.729705,2.62329 q 0.101152,0 0.207362,-0.01622 0.106218,-0.02168 0.171959,-0.04336 v 0.363142 q -0.07081,0.03795 -0.202305,0.05963 -0.131498,0.02709 -0.25288,0.02709 -0.21242,0 -0.394494,-0.07588 -0.177017,-0.08131 -0.288285,-0.276421 -0.111267,-0.195119 -0.111267,-0.54742 v -1.691047 h -0.384379 v -0.227641 l 0.389436,-0.189701 0.177017,-0.617882 h 0.262996 v 0.666663 h 0.783931 v 0.368561 h -0.783931 v 1.680207 q 0,0.265581 0.116333,0.395661 0.121383,0.124652 0.308515,0.124652 z"
       id="text2"
       style="font-size:3.175px;display:none;fill:#840000;stroke:#000000;stroke-width:0.164903"
       aria-label="start" />
    <path
       d="m 9.2296553,12.401333 q 0.4423713,0 0.756519,0.140962 0.3205587,0.140961 0.4872497,0.399391 0.173111,0.253732 0.173111,0.596738 v 0.249032 H 8.2936335 q 0.012923,0.427584 0.2949142,0.653123 0.2885029,0.22084 0.8013971,0.22084 0.3269701,0 0.577006,-0.0423 0.2564472,-0.04699 0.5257172,-0.131564 v 0.361802 q -0.262859,0.08457 -0.519306,0.122166 -0.2564471,0.0423 -0.6090618,0.0423 -0.4872496,0 -0.865509,-0.145668 -0.3718483,-0.145654 -0.5834171,-0.432284 -0.2051577,-0.29132 -0.2051577,-0.709506 0,-0.413487 0.1859141,-0.709507 0.1923353,-0.29602 0.5321277,-0.455777 0.3462035,-0.159757 0.8013971,-0.159757 z m -0.00646,0.338308 q -0.4039043,0 -0.6411178,0.192648 -0.2308023,0.187949 -0.2756806,0.526257 h 1.7502511 q -0.0065,-0.319513 -0.2051574,-0.51686 -0.1987364,-0.202045 -0.6282953,-0.202045 z m 3.9492807,-0.338308 q 0.615474,0 0.929622,0.22084 0.314148,0.216141 0.314148,0.704808 v 1.639855 h -0.557772 v -1.611662 q 0,-0.606135 -0.769343,-0.606135 -0.570594,0 -0.788574,0.234936 -0.21798,0.234936 -0.21798,0.676616 v 1.306245 H 11.51839 V 12.44832 h 0.455194 l 0.08334,0.343008 h 0.03207 q 0.166691,-0.197348 0.461604,-0.291322 0.294915,-0.09869 0.621884,-0.09869 z m 3.526149,2.612491 q -0.641118,0 -1.025789,-0.324213 -0.38467,-0.32891 -0.38467,-0.977335 0,-0.648423 0.38467,-0.977333 0.391083,-0.33361 1.0322,-0.33361 0.397494,0 0.647529,0.108061 0.256447,0.10806 0.416727,0.263129 h 0.03846 q -0.0065,-0.06107 -0.02564,-0.178552 -0.01293,-0.122167 -0.01293,-0.192648 v -1.005526 h 0.564184 v 3.57103 h -0.455194 l -0.08336,-0.338309 h -0.02564 q -0.153869,0.159757 -0.410315,0.272526 -0.256448,0.11277 -0.660352,0.11277 z m 0.08976,-0.343008 q 0.544949,0 0.76293,-0.216141 0.224391,-0.22084 0.224391,-0.66252 v -0.07518 q 0,-0.469872 -0.211569,-0.718905 -0.211569,-0.253731 -0.782163,-0.253731 -0.455194,0 -0.685997,0.267828 -0.224391,0.263128 -0.224391,0.709507 0,0.451077 0.224391,0.70011 0.230803,0.249032 0.692408,0.249032 z"
       id="text3"
       style="font-size:3.175px;fill:#840000;stroke:#000000;stroke-width:0.172868"
       aria-label="end" />
  </g>
</svg>
