<?xml version="1.0" encoding="UTF-8" standalone="no"?>
<!-- Created with Inkscape (http://www.inkscape.org/) -->

<svg
   width="100"
   height="100"
   viewBox="0 0 26.458333 26.458333"
   version="1.1"
   id="svg1"
   xmlns="http://www.w3.org/2000/svg"
   xmlns:svg="http://www.w3.org/2000/svg">
  <defs
     id="defs1" />
  <g
     id="layer1">
    <rect
       style="fill:#408400;fill-opacity:1;stroke:#00ff00;stroke-width:0.141564;stroke-opacity:1"
       id="rect1"
       width="2.7528634"
       height="17.761019"
       x="11.852735"
       y="8.6705713"
       ry="0" />
    <rect
       style="fill:#35391b;fill-opacity:1;stroke:#00ff00;stroke-width:0.164"
       id="rect2"
       width="19.289146"
       height="10.261121"
       x="3.5845935"
       y="8.0986061" />
    <path
       d="m 9.6433067,14.161402 q 0,0.422762 -0.293342,0.639563 -0.293341,0.216801 -0.788988,0.216801 -0.283226,0 -0.490589,-0.04879 -0.202304,-0.04879 -0.35909,-0.135509 v -0.433602 q 0.161843,0.08672 0.389436,0.162601 0.23265,0.07047 0.470358,0.07047 0.338861,0 0.490589,-0.113829 0.151729,-0.11924 0.151729,-0.314361 0,-0.1084 -0.05564,-0.195121 -0.05563,-0.08672 -0.202305,-0.17344 -0.141613,-0.08672 -0.409667,-0.195121 -0.262996,-0.1084 -0.450128,-0.216801 -0.187131,-0.1084 -0.288284,-0.260161 -0.101152,-0.15176 -0.101152,-0.390241 0,-0.368562 0.278169,-0.569103 0.283226,-0.20054 0.738412,-0.20054 0.247823,0 0.460243,0.0542 0.217478,0.04879 0.404609,0.14092 l -0.151728,0.379402 q -0.171959,-0.07588 -0.359091,-0.130081 -0.187132,-0.0542 -0.384379,-0.0542 -0.273111,0 -0.419782,0.09756 -0.141613,0.09213 -0.141613,0.254741 0,0.11924 0.06576,0.20596 0.06576,0.08131 0.217477,0.162601 0.156778,0.07588 0.414725,0.184281 0.257938,0.102989 0.440013,0.211381 0.182074,0.1084 0.278168,0.265581 0.09609,0.15176 0.09609,0.384821 z m 1.5628043,0.466122 q 0.101152,0 0.207362,-0.01622 0.106218,-0.02168 0.171959,-0.04336 v 0.363142 q -0.07081,0.03795 -0.202305,0.05963 -0.131498,0.02709 -0.252881,0.02709 -0.212419,0 -0.394494,-0.07588 -0.177016,-0.08131 -0.288284,-0.276421 -0.111267,-0.195121 -0.111267,-0.547422 V 12.427038 H 9.9518217 v -0.227641 l 0.3894363,-0.189701 0.177017,-0.617882 h 0.262996 v 0.666663 h 0.783931 v 0.368561 h -0.783931 v 1.680207 q 0,0.265581 0.116317,0.395661 0.121383,0.124652 0.308515,0.124652 z m 1.947182,-2.61787 q 0.495647,0 0.733355,0.233061 0.237708,0.233061 0.237708,0.742543 v 1.978307 h -0.323688 l -0.08597,-0.411921 h -0.02023 q -0.177016,0.238481 -0.374263,0.352301 -0.19219,0.113829 -0.536108,0.113829 -0.369206,0 -0.611971,-0.205961 -0.242766,-0.211381 -0.242766,-0.655822 0,-0.433602 0.31863,-0.666663 0.31863,-0.238481 0.981177,-0.260161 l 0.460244,-0.01622 v -0.173441 q 0,-0.363141 -0.146663,-0.504062 -0.146679,-0.140921 -0.414725,-0.140921 -0.21242,0 -0.404609,0.07045 -0.19219,0.06504 -0.359091,0.151761 l -0.136564,-0.357722 q 0.177017,-0.102989 0.419782,-0.17344 0.242766,-0.07588 0.505762,-0.07588 z m 0.131498,1.550126 q -0.505761,0.02168 -0.703009,0.17344 -0.192189,0.151761 -0.192189,0.428182 0,0.243901 0.136564,0.357722 0.141613,0.113829 0.35909,0.113829 0.343918,0 0.571511,-0.200541 0.227593,-0.205961 0.227593,-0.628723 v -0.260161 z m 2.943538,-1.555546 q 0.07587,0 0.161844,0.01075 0.09104,0.0055 0.156778,0.02168 l -0.05564,0.439022 q -0.06574,-0.01622 -0.146663,-0.02711 -0.07587,-0.01075 -0.146679,-0.01075 -0.207362,0 -0.389436,0.124652 -0.182074,0.11924 -0.293342,0.341461 -0.106218,0.216801 -0.106218,0.509482 v 1.550126 h -0.44507 v -2.905131 h 0.364148 l 0.05058,0.531162 h 0.02023 q 0.131498,-0.238481 0.33886,-0.411922 0.207363,-0.17344 0.490589,-0.17344 z m 1.729705,2.62329 q 0.101152,0 0.207362,-0.01622 0.106218,-0.02168 0.171959,-0.04336 v 0.363142 q -0.07081,0.03795 -0.202305,0.05963 -0.131498,0.02709 -0.25288,0.02709 -0.21242,0 -0.394494,-0.07588 -0.177017,-0.08131 -0.288285,-0.276421 -0.111267,-0.195119 -0.111267,-0.54742 v -1.691047 h -0.384379 v -0.227641 l 0.389436,-0.189701 0.177017,-0.617882 h 0.262996 v 0.666663 h 0.783931 v 0.368561 h -0.783931 v 1.680207 q 0,0.265581 0.116333,0.395661 0.121383,0.124652 0.308515,0.124652 z"
       id="text2"
       style="font-size:3.175px;fill:#840000;stroke:#000000;stroke-width:0.164903"
       aria-label="start" />
  </g>
</svg>
